<?xml version="1.0" encoding="iso-8859-1"?>
<svg version="1.1" xmlns="http://www.w3.org/2000/svg" xmlns:xlink="http://www.w3.org/1999/xlink" x="0px" y="0px" viewBox="0 0 512 512">
  <path style="fill:#F3F3F3;" d="M512,114.133V480c0,18.133-13.867,32-32,32H32c-18.133,0-32-13.867-32-32V114.133H512z"/>
  <path style="fill:#54C1EC;" d="M512,114.133V32c0-18.133-13.867-32-32-32H32C13.867,0,0,13.867,0,32v82.133H512z"/>
  <g>
    <circle style="fill:#FFFFFF;" cx="64" cy="56.533" r="23.467"/>
    <circle style="fill:#FFFFFF;" cx="133.333" cy="56.533" r="23.467"/>
    <circle style="fill:#FFFFFF;" cx="201.6" cy="56.533" r="23.467"/>
  </g>
  <path style="fill:#CED6E0;" d="M117.333,165.333h-60.8c-3.2,0-5.333,2.133-5.333,5.333v61.867c0,3.2,2.133,5.333,5.333,5.333h60.8  c3.2,0,5.333-2.133,5.333-5.333v-61.867C122.667,167.467,120.533,165.333,117.333,165.333z M113.067,226.133h-51.2v-51.2h51.2  V226.133z"/>
  <path style="fill:#FF7055;" d="M86.4,236.8c-2.133,0-4.267-1.067-5.333-2.133l-27.733-27.733c-3.2-3.2-3.2-8.533,0-11.733 c3.2-3.2,8.533-3.2,11.733,0l19.2,19.2c6.4-11.733,21.333-32,48-51.2c3.2-2.133,8.533-2.133,10.667,2.133 c2.133,3.2,2.133,8.533-2.133,10.667c-37.333,26.667-48,54.4-48,54.4c-1.067,2.133-3.2,4.267-5.333,5.333 C87.467,236.8,87.467,236.8,86.4,236.8z"/>
  <g>
    <rect x="158.933" y="170.667" style="fill:#CED6E0;" width="309.333" height="19.2"/>
    <rect x="158.933" y="212.267" style="fill:#CED6E0;" width="165.333" height="19.2"/>
    <path style="fill:#CED6E0;" d="M117.333,268.8h-60.8c-3.2,0-5.333,2.133-5.333,5.333V336c0,3.2,2.133,5.333,5.333,5.333h60.8 c3.2,0,5.333-2.133,5.333-5.333v-61.867C122.667,270.933,120.533,268.8,117.333,268.8z M113.067,330.667h-51.2v-51.2h51.2V330.667z"/>
  </g>
  <path style="fill:#FF7055;" d="M86.4,340.267c-2.133,0-4.267-1.067-5.333-2.133L53.333,310.4c-3.2-3.2-3.2-8.533,0-11.733 c3.2-3.2,8.533-3.2,11.733,0l19.2,19.2c6.4-11.733,21.333-32,48-51.2c3.2-2.133,8.533-2.133,10.667,2.133 c2.133,3.2,2.133,8.533-2.133,10.667c-37.333,26.667-48,54.4-48,54.4c-1.067,2.133-3.2,4.267-5.333,5.333 C87.467,340.267,87.467,340.267,86.4,340.267z"/>
  <g>
    <rect x="158.933" y="274.133" style="fill:#CED6E0;" width="309.333" height="19.2"/>
    <rect x="158.933" y="315.733" style="fill:#CED6E0;" width="165.333" height="19.2"/>
    <path style="fill:#CED6E0;" d="M117.333,372.267h-60.8c-3.2,0-5.333,2.133-5.333,5.333v61.867c0,3.2,2.133,5.333,5.333,5.333h60.8 c3.2,0,5.333-2.133,5.333-5.333V377.6C122.667,374.4,120.533,372.267,117.333,372.267z M113.067,434.133h-51.2v-51.2h51.2V434.133z"/>
    <rect x="158.933" y="377.6" style="fill:#CED6E0;" width="309.333" height="19.2"/>
    <rect x="158.933" y="419.2" style="fill:#CED6E0;" width="165.333" height="19.2"/>
  </g>
</svg>
