<?xml version="1.0" encoding="iso-8859-1"?>
<svg version="1.1" id="Layer_1" xmlns="http://www.w3.org/2000/svg" xmlns:xlink="http://www.w3.org/1999/xlink" x="0px" y="0px" viewBox="0 0 512 512">
  <path style="fill:#F2F2F2;" d="M385.067,0H57.6C45.867,0,36.267,9.6,36.267,21.333v469.333C36.267,502.4,45.867,512,57.6,512 h395.733c11.733,0,21.333-9.6,21.333-21.333v-400L385.067,0z"/>
  <path style="fill:#CDD6E0;" d="M385.067,62.933c0,14.933,11.733,27.733,27.733,27.733h62.933L385.067,0V62.933z"/>
  <rect x="201.6" y="107.733" style="fill:#ACB3BA;" width="274.133" height="50.133"/>
  <path style="fill:#54C1EC;" d="M57.6,0C45.867,0,36.267,9.6,36.267,21.333v469.333C36.267,502.4,45.867,512,57.6,512h142.933V0H57.6 z"/>
  <circle style="fill:#FF7055;" cx="119.467" cy="132.267" r="56.533"/>
  <g>
    <rect x="55.467" y="433.067" style="fill:#324A5E;" width="125.867" height="21.333"/>
    <rect x="55.467" y="366.933" style="fill:#324A5E;" width="125.867" height="21.333"/>
  </g>
  <g>
    <rect x="231.467" y="235.733" style="fill:#54C1EC;" width="213.333" height="21.333"/>
    <rect x="231.467" y="301.867" style="fill:#54C1EC;" width="213.333" height="21.333"/>
    <rect x="231.467" y="366.933" style="fill:#54C1EC;" width="213.333" height="21.333"/>
    <rect x="338.133" y="433.067" style="fill:#54C1EC;" width="106.667" height="21.333"/>
  </g>
  <rect x="272" y="121.6" style="fill:#CDD6E0;" width="132.267" height="21.333"/>
  <g>
    <path style="fill:#F2F2F2;" d="M96,117.333c6.4,25.6,23.467,26.667,23.467,26.667s16-2.133,23.467-26.667c0,0,3.2-3.2,1.067-13.867 c0,0-2.133-22.4-23.467-22.4s-25.6,22.4-25.6,22.4C92.8,114.133,96,117.333,96,117.333z"/>
    <path style="fill:#F2F2F2;" d="M161.067,152.533c-7.467,16-23.467,26.667-42.667,26.667s-35.2-10.667-42.667-26.667 c1.067-1.067,3.2-1.067,4.267-2.133l18.133-6.4l2.133-1.067c8.533,8.533,17.067,9.6,17.067,9.6h1.067h1.067 c0,0,8.533-1.067,17.067-9.6l2.133,1.067l18.133,6.4C158.933,151.467,160,151.467,161.067,152.533z"/>
  </g>
</svg>
